<svg width="90" height="90" viewBox="0 0 90 90" fill="none" xmlns="http://www.w3.org/2000/svg">
<path d="M77.2125 77.25L12.7875 77.25C10.8879 77.25 9.06608 76.4954 7.72285 75.1522C6.37963 73.8089 5.62501 71.9871 5.62501 70.0875V70.0875C5.62501 64.9167 6.64347 59.7965 8.62225 55.0193C10.601 50.2421 13.5014 45.9015 17.1577 42.2452C20.814 38.5889 25.1547 35.6885 29.9319 33.7097C34.709 31.731 39.8292 30.7125 45 30.7125V30.7125C55.4429 30.7125 65.4581 34.8609 72.8423 42.2452C80.2266 49.6294 84.375 59.6446 84.375 70.0875V70.0875C84.375 71.9871 83.6204 73.8089 82.2772 75.1522C80.9339 76.4954 79.1121 77.25 77.2125 77.25V77.25Z" stroke="black" stroke-width="6.91038" stroke-miterlimit="10"/>
<path d="M9.22457 53.3247C10.1246 49.9872 7.16207 37.8372 8.84957 34.8747C10.5371 31.9122 16.3496 32.0247 18.8246 29.5872C21.2996 27.1497 21.1496 21.3372 24.1121 19.6122C27.0746 17.8872 32.0621 20.9247 35.3621 20.0247C38.6621 19.1247 41.4371 14.0247 44.9621 14.0247C48.4871 14.0247 51.2996 19.1247 54.5621 20.0247C57.8246 20.9247 62.8871 17.9247 65.8121 19.6122C68.7371 21.2997 68.6621 27.1122 71.0996 29.5872C73.5371 32.0622 79.3496 31.9122 81.0746 34.9122C82.7996 37.9122 79.7996 49.9122 80.6996 53.3247" stroke="black" stroke-width="6.91038" stroke-miterlimit="10"/>
<path d="M19.9495 59.3628L27.112 66.5253" stroke="black" stroke-width="6.91038" stroke-miterlimit="10"/>
<path d="M48.5615 55.7625V62.925" stroke="black" stroke-width="6.91038" stroke-miterlimit="10"/>
<path d="M66.4871 55.7625V66.525" stroke="black" stroke-width="6.91038" stroke-miterlimit="10"/>
<path d="M34.2739 41.4375L41.4364 48.6" stroke="black" stroke-width="6.91038" stroke-miterlimit="10"/>
</svg>
